<?xml version="1.0" encoding="utf-8"?>
<svg id="master-artboard" viewBox="0 0 101.60661315917969 73.27965545654297" version="1.1" xmlns="http://www.w3.org/2000/svg" x="0px" y="0px" style="enable-background:new 0 0 1400 980;" width="101.60661315917969px" height="73.27965545654297px" xmlns:xlink="http://www.w3.org/1999/xlink"><rect id="ee-background" x="0" y="0" width="101.60661315917969" height="73.27965545654297" style="fill: white; fill-opacity: 0; pointer-events: none;"/><defs><style id="ee-google-fonts">@import url(https://fonts.googleapis.com/css?family=Roboto:100,100italic,300,300italic,400,400italic,500,500italic,700,700italic,900,900italic);</style></defs>























































































































<g transform="matrix(1.2760416269302368, 0, 0, 1.2760416269302368, -604.1692819595337, -456.26947116851807)"><metadata id="metadata795472">
    
  </metadata><linearGradient spreadMethod="pad" y2="30%" x2="-10%" y1="120%" x1="30%" id="3d_gradient2-logo-c2cab717-2891-44cb-9d5f-1a09418d8460">
    <stop id="stop795447" stop-opacity="1" stop-color="#ffffff" offset="0%"/>
    <stop id="stop795449" stop-opacity="1" stop-color="#000000" offset="100%"/>
  </linearGradient><linearGradient gradientTransform="rotate(-30)" spreadMethod="pad" y2="30%" x2="-10%" y1="120%" x1="30%" id="3d_gradient3-logo-c2cab717-2891-44cb-9d5f-1a09418d8460">
    <stop id="stop795452" stop-opacity="1" stop-color="#ffffff" offset="0%"/>
    <stop id="stop795454" stop-opacity="1" stop-color="#cccccc" offset="50%"/>
    <stop id="stop795456" stop-opacity="1" stop-color="#000000" offset="100%"/>
  </linearGradient><g id="logo-group">
    <image id="container" x="272" y="144" width="480" height="480" style="display: none;" transform="translate(0 0)" xlink:href=""/>
    <g id="logo-center" transform="translate(0 0)">
      <image id="icon_container" x="0" y="0" style="display: none;" xlink:href=""/>
      <g id="slogan" style="font-style:normal;font-weight:400;font-size:32px;line-height:1;font-family:'Roboto Slab';font-variant-ligatures:none;text-align:center;text-anchor:middle" transform="translate(0 0)"/>
      <g id="title" style="font-style:normal;font-weight:800;font-size:72px;line-height:1;font-family:'Montserrat ExtraBold Alt1';font-variant-ligatures:none;text-align:center;text-anchor:middle" transform="translate(0 0)">
        <path id="path795475" style="font-style:normal;font-weight:800;font-size:72px;line-height:1;font-family:'Montserrat ExtraBold Alt1';font-variant-ligatures:none;text-align:center;text-anchor:middle" d="m 503.06581,-26.28 v 13.824 c -2.448,1.152 -4.968,1.656 -7.704,1.656 -2.808,0 -5.256,-0.576 -7.416,-1.8 -2.16,-1.224 -3.888,-2.952 -5.04,-5.112 -1.224,-2.16 -1.8,-4.68 -1.8,-7.488 0,-4.32 1.296,-7.848 3.96,-10.44 2.592,-2.592 6.12,-3.96 10.44,-3.96 4.752,0 8.784,1.872 12.24,5.616 l 9.072,-8.208 c -2.52,-2.952 -5.616,-5.256 -9.36,-6.84 -3.744,-1.584 -7.992,-2.376 -12.672,-2.376 -5.4,0 -10.224,1.152 -14.472,3.384 -4.32,2.232 -7.632,5.328 -10.008,9.288 -2.448,4.032 -3.6,8.496 -3.6,13.536 0,5.04 1.152,9.576 3.6,13.536 2.376,4.032 5.688,7.128 9.936,9.36 4.176,2.232 8.928,3.312 14.256,3.312 3.744,0 7.488,-0.504 11.232,-1.656 3.744,-1.08 7.056,-2.664 9.936,-4.752 v -20.88 z" stroke-width="0" stroke-linejoin="miter" stroke-miterlimit="2" fill="#876b48" stroke="#876b48" transform="translate(0 299.97999999999996) translate(479.75828375 65.93648) scale(0.69) translate(-466.70581 51.408)"/>
        <path id="path795477" style="font-style:normal;font-weight:800;font-size:72px;line-height:1;font-family:'Montserrat ExtraBold Alt1';font-variant-ligatures:none;text-align:center;text-anchor:middle" d="m 525.64006,-0.864 c 3.024,1.296 6.336,1.872 10.08,1.872 6.336,0 11.16,-1.584 14.472,-4.896 3.312,-3.24 4.968,-8.136 4.968,-14.688 V -50.4 h -31.536 v 11.016 h 17.424 v 21.672 c 0,2.448 -0.576,4.248 -1.656,5.472 -1.08,1.296 -2.664,1.872 -4.68,1.872 -3.168,0 -6.048,-1.728 -8.712,-5.256 l -7.776,9.216 c 1.872,2.448 4.392,4.248 7.416,5.544 z" stroke-width="0" stroke-linejoin="miter" stroke-miterlimit="2" fill="#7c6e47" stroke="#7c6e47" transform="translate(0 299.97999999999996) translate(518.75587625 66.632) scale(0.69) translate(-518.22406 50.4)"/>
      </g>
      <image id="icon" x="0" y="0" style="display: none;" xlink:href=""/>
    </g>
  </g></g></svg>