<?xml version="1.0" encoding="utf-8"?>
<svg id="master-artboard" viewBox="0 0 471.9769287109375 82.63581848144531" version="1.1" xmlns="http://www.w3.org/2000/svg" x="0px" y="0px" style="enable-background:new 0 0 1400 980;" width="471.9769287109375px" height="82.63581848144531px" xmlns:xlink="http://www.w3.org/1999/xlink"><rect id="ee-background" x="0" y="0" width="471.9769287109375" height="82.63581848144531" style="fill: white; fill-opacity: 0; pointer-events: none;"/><defs><style id="ee-google-fonts">@import url(https://fonts.googleapis.com/css?family=Roboto:100,100italic,300,300italic,400,400italic,500,500italic,700,700italic,900,900italic);</style></defs>























































































































<g transform="matrix(1.2760416269302368, 0, 0, 1.2760416269302368, -419.1136169433594, -450.4508361816406)"><metadata id="metadata37708">
    
  </metadata><linearGradient spreadMethod="pad" y2="30%" x2="-10%" y1="120%" x1="30%" id="3d_gradient2-logo-c2cab717-2891-44cb-9d5f-1a09418d8460">
    <stop id="stop37683" stop-opacity="1" stop-color="#ffffff" offset="0%"/>
    <stop id="stop37685" stop-opacity="1" stop-color="#000000" offset="100%"/>
  </linearGradient><linearGradient gradientTransform="rotate(-30)" spreadMethod="pad" y2="30%" x2="-10%" y1="120%" x1="30%" id="3d_gradient3-logo-c2cab717-2891-44cb-9d5f-1a09418d8460">
    <stop id="stop37688" stop-opacity="1" stop-color="#ffffff" offset="0%"/>
    <stop id="stop37690" stop-opacity="1" stop-color="#cccccc" offset="50%"/>
    <stop id="stop37692" stop-opacity="1" stop-color="#000000" offset="100%"/>
  </linearGradient><g id="logo-group">
    <image id="container" x="272" y="144" width="480" height="480" transform="translate(0 0)" style="display: none;" xlink:href=""/>
    <g id="logo-center" transform="translate(-1.1368683772161603e-13 0)">
      <image id="icon_container" x="0" y="0" style="display: none;" xlink:href=""/>
      <g id="slogan" style="font-style:normal;font-weight:400;font-size:32px;line-height:1;font-family:'Roboto Slab';font-variant-ligatures:none;text-align:center;text-anchor:middle" transform="translate(0 0)"/>
      <g id="title" style="font-style:normal;font-weight:800;font-size:72px;line-height:1;font-family:'Montserrat ExtraBold Alt1';font-variant-ligatures:none;text-align:center;text-anchor:middle" transform="translate(0 0)">
        <path id="path37711" style="font-style:normal;font-weight:800;font-size:72px;line-height:1;font-family:'Montserrat ExtraBold Alt1';font-variant-ligatures:none;text-align:center;text-anchor:middle" d="m 316.59706,-26.28 v 13.824 c -2.448,1.152 -4.968,1.656 -7.704,1.656 -2.808,0 -5.256,-0.576 -7.416,-1.8 -2.16,-1.224 -3.888,-2.952 -5.04,-5.112 -1.224,-2.16 -1.8,-4.68 -1.8,-7.488 0,-4.32 1.296,-7.848 3.96,-10.44 2.592,-2.592 6.12,-3.96 10.44,-3.96 4.752,0 8.784,1.872 12.24,5.616 l 9.072,-8.208 c -2.52,-2.952 -5.616,-5.256 -9.36,-6.84 -3.744,-1.584 -7.992,-2.376 -12.672,-2.376 -5.4,0 -10.224,1.152 -14.472,3.384 -4.32,2.232 -7.632,5.328 -10.008,9.288 -2.448,4.032 -3.6,8.496 -3.6,13.536 0,5.04 1.152,9.576 3.6,13.536 2.376,4.032 5.688,7.128 9.936,9.36 4.176,2.232 8.928,3.312 14.256,3.312 3.744,0 7.488,-0.504 11.232,-1.656 3.744,-1.08 7.056,-2.664 9.936,-4.752 v -20.88 z" stroke-width="0" stroke-linejoin="miter" stroke-miterlimit="2" fill="#876b48" stroke="#876b48" transform="translate(0 295.7356) translate(334.67405375 72.41648) scale(0.69) translate(-280.23706 51.408)"/>
        <path id="path37713" style="font-style:normal;font-weight:800;font-size:72px;line-height:1;font-family:'Montserrat ExtraBold Alt1';font-variant-ligatures:none;text-align:center;text-anchor:middle" d="m 369.05131,-35.208 c -3.456,-2.952 -8.352,-4.464 -14.832,-4.464 -3.168,0 -6.264,0.432 -9.36,1.224 -3.096,0.792 -5.688,1.872 -7.848,3.312 l 4.608,9.288 c 1.296,-1.008 2.952,-1.872 4.896,-2.448 1.872,-0.576 3.816,-0.936 5.688,-0.936 5.256,0 7.992,2.088 8.28,6.192 h -7.776 c -5.904,0 -10.296,1.08 -13.104,3.096 -2.88,2.016 -4.248,4.896 -4.248,8.568 0,2.304 0.504,4.392 1.656,6.192 1.152,1.8 2.808,3.24 5.04,4.248 2.16,1.08 4.824,1.584 7.848,1.584 5.688,0 9.504,-1.872 11.52,-5.688 V 0 h 12.744 v -21.672 c 0,-6.048 -1.728,-10.584 -5.112,-13.536 z m -11.16,26.064 c -1.224,0.792 -2.592,1.152 -4.176,1.152 -1.584,0 -2.88,-0.36 -3.744,-1.08 -0.936,-0.72 -1.368,-1.656 -1.368,-2.88 0,-2.592 1.944,-3.96 5.976,-3.96 h 5.904 v 3.384 c -0.576,1.512 -1.44,2.664 -2.592,3.384 z" stroke-width="0" stroke-linejoin="miter" stroke-miterlimit="2" fill="#866b48" stroke="#866b48" transform="translate(0 295.7356) translate(376.15564624999996 80.51432) scale(0.69) translate(-335.35531 39.672)"/>
        <path id="path37715" style="font-style:normal;font-weight:800;font-size:72px;line-height:1;font-family:'Montserrat ExtraBold Alt1';font-variant-ligatures:none;text-align:center;text-anchor:middle" d="m 417.06856,-37.224 c -2.88,-1.584 -6.12,-2.448 -9.648,-2.448 -4.608,0 -8.28,1.368 -10.872,4.032 v -17.784 h -13.68 V 0 h 13.032 v -3.888 c 2.52,3.024 6.336,4.536 11.52,4.536 3.528,0 6.768,-0.792 9.648,-2.448 2.88,-1.656 5.184,-4.032 6.912,-7.128 1.728,-3.024 2.592,-6.624 2.592,-10.656 0,-4.032 -0.864,-7.56 -2.592,-10.584 -1.728,-3.024 -4.032,-5.4 -6.912,-7.056 z m -6.624,24.552 c -1.584,1.656 -3.528,2.448 -5.904,2.448 -2.448,0 -4.392,-0.792 -5.904,-2.448 -1.584,-1.656 -2.304,-3.96 -2.304,-6.912 0,-2.88 0.72,-5.112 2.304,-6.768 1.512,-1.584 3.456,-2.448 5.904,-2.448 2.376,0 4.32,0.864 5.904,2.448 1.512,1.656 2.304,3.888 2.304,6.768 0,2.952 -0.792,5.256 -2.304,6.912 z" stroke-width="0" stroke-linejoin="miter" stroke-miterlimit="2" fill="#856c48" stroke="#856c48" transform="translate(0 295.7356) translate(412.38978875 71.02544) scale(0.69) translate(-382.86856 53.424)"/>
        <path id="path37717" style="font-style:normal;font-weight:800;font-size:72px;line-height:1;font-family:'Montserrat ExtraBold Alt1';font-variant-ligatures:none;text-align:center;text-anchor:middle" d="m 451.36306,-38.304 c -2.232,0.864 -4.032,2.232 -5.4,3.96 v -4.68 h -13.032 V 0 h 13.68 v -17.928 c 0,-3.24 0.792,-5.688 2.448,-7.272 1.656,-1.584 3.96,-2.376 6.912,-2.376 0.792,0 1.8,0.072 3.096,0.216 v -12.312 c -2.88,0 -5.472,0.504 -7.704,1.368 z" stroke-width="0" stroke-linejoin="miter" stroke-miterlimit="2" fill="#846c48" stroke="#846c48" transform="translate(0 295.7356) translate(450.38291374999994 80.51432) scale(0.69) translate(-432.93106 39.672)"/>
        <path id="path37719" style="font-style:normal;font-weight:800;font-size:72px;line-height:1;font-family:'Montserrat ExtraBold Alt1';font-variant-ligatures:none;text-align:center;text-anchor:middle" d="M 464.71231,-39.024 V 0 h 13.68 v -39.024 z m 0.792,-6.408 c 1.512,1.44 3.528,2.088 6.048,2.088 2.448,0 4.464,-0.648 6.048,-2.088 1.512,-1.44 2.304,-3.24 2.304,-5.4 0,-2.016 -0.792,-3.744 -2.304,-5.04 -1.584,-1.296 -3.6,-2.016 -6.048,-2.016 -2.52,0 -4.536,0.72 -6.048,2.088 -1.584,1.44 -2.304,3.168 -2.304,5.184 0,2.088 0.72,3.816 2.304,5.184 z" stroke-width="0" stroke-linejoin="miter" stroke-miterlimit="2" fill="#836c48" stroke="#836c48" transform="translate(0 295.7356) translate(474.71869624999994 67.94528) scale(0.69) translate(-463.20031 57.888)"/>
        <path id="path37721" style="font-style:normal;font-weight:800;font-size:72px;line-height:1;font-family:'Montserrat ExtraBold Alt1';font-variant-ligatures:none;text-align:center;text-anchor:middle" d="m 526.88431,-16.056 c 0.144,-2.16 0.216,-3.24 0.216,-3.384 0,-4.176 -0.936,-7.776 -2.808,-10.8 -1.872,-3.024 -4.32,-5.4 -7.488,-6.984 -3.168,-1.584 -6.696,-2.448 -10.584,-2.448 -4.104,0 -7.776,0.864 -11.016,2.592 -3.312,1.728 -5.832,4.176 -7.704,7.2 -1.872,3.024 -2.736,6.48 -2.736,10.296 0,3.888 0.936,7.416 2.808,10.44 1.872,3.096 4.608,5.472 8.064,7.2 3.456,1.728 7.416,2.592 12.024,2.592 7.272,0 12.816,-2.088 16.632,-6.336 l -7.2,-7.488 c -1.44,1.224 -2.808,2.088 -4.176,2.592 -1.368,0.576 -2.952,0.792 -4.824,0.792 -2.52,0 -4.608,-0.504 -6.264,-1.584 -1.656,-1.08 -2.736,-2.664 -3.312,-4.68 z m -25.92,-12.096 c 1.44,-1.152 3.168,-1.8 5.328,-1.8 2.088,0 3.816,0.648 5.256,1.8 1.44,1.224 2.304,2.88 2.736,4.896 h -15.984 c 0.36,-2.016 1.224,-3.672 2.664,-4.896 z" stroke-width="0" stroke-linejoin="miter" stroke-miterlimit="2" fill="#826d48" stroke="#826d48" transform="translate(0 295.7356) translate(493.04785624999994 80.51432) scale(0.69) translate(-484.76431 39.672)"/>
        <path id="path37723" style="font-style:normal;font-weight:800;font-size:72px;line-height:1;font-family:'Montserrat ExtraBold Alt1';font-variant-ligatures:none;text-align:center;text-anchor:middle" d="M 533.47794,-53.424 V 0 h 13.68 v -53.424 z" stroke-width="0" stroke-linejoin="miter" stroke-miterlimit="2" fill="#806d47" stroke="#806d47" transform="translate(0 295.7356) translate(530.1102609499999 71.02544) scale(0.69) translate(-533.47794 53.424)"/>
        <path id="path37725" style="font-style:normal;font-weight:800;font-size:72px;line-height:1;font-family:'Montserrat ExtraBold Alt1';font-variant-ligatures:none;text-align:center;text-anchor:middle" d="m 578.51506,-0.864 c 3.024,1.296 6.336,1.872 10.08,1.872 6.336,0 11.16,-1.584 14.472,-4.896 3.312,-3.24 4.968,-8.136 4.968,-14.688 V -50.4 h -31.536 v 11.016 h 17.424 v 21.672 c 0,2.448 -0.576,4.248 -1.656,5.472 -1.08,1.296 -2.664,1.872 -4.68,1.872 -3.168,0 -6.048,-1.728 -8.712,-5.256 l -7.776,9.216 c 1.872,2.448 4.392,4.248 7.416,5.544 z" stroke-width="0" stroke-linejoin="miter" stroke-miterlimit="2" fill="#7f6d47" stroke="#7f6d47" transform="translate(0 295.7356) translate(559.51883375 73.112) scale(0.69) translate(-571.09906 50.4)"/>
        <path id="path37727" style="font-style:normal;font-weight:800;font-size:72px;line-height:1;font-family:'Montserrat ExtraBold Alt1';font-variant-ligatures:none;text-align:center;text-anchor:middle" d="m 625.28919,-1.944 c 3.312,1.728 7.128,2.592 11.304,2.592 4.176,0 7.992,-0.864 11.376,-2.592 3.312,-1.728 5.976,-4.104 7.848,-7.2 1.872,-3.024 2.808,-6.552 2.808,-10.44 0,-3.888 -0.936,-7.344 -2.808,-10.368 -1.872,-3.024 -4.536,-5.4 -7.848,-7.128 -3.384,-1.728 -7.2,-2.592 -11.376,-2.592 -4.248,0 -8.064,0.864 -11.376,2.592 -3.312,1.728 -5.976,4.104 -7.848,7.128 -1.872,3.096 -2.808,6.552 -2.808,10.368 0,3.888 0.936,7.416 2.808,10.44 1.872,3.096 4.536,5.472 7.92,7.2 z m 17.208,-10.728 c -1.584,1.656 -3.528,2.448 -5.904,2.448 -2.448,0 -4.392,-0.792 -5.904,-2.448 -1.584,-1.656 -2.304,-3.96 -2.304,-6.912 0,-2.88 0.72,-5.112 2.304,-6.768 1.512,-1.584 3.456,-2.448 5.904,-2.448 2.376,0 4.32,0.864 5.904,2.448 1.512,1.656 2.304,3.888 2.304,6.768 0,2.952 -0.792,5.256 -2.304,6.912 z" stroke-width="0" stroke-linejoin="miter" stroke-miterlimit="2" fill="#7e6d47" stroke="#7e6d47" transform="translate(0 295.7356) translate(592.95770345 80.51432) scale(0.69) translate(-614.56119 39.672)"/>
        <path id="path37729" style="font-style:normal;font-weight:800;font-size:72px;line-height:1;font-family:'Montserrat ExtraBold Alt1';font-variant-ligatures:none;text-align:center;text-anchor:middle" d="m 669.49831,-0.432 c 3.168,0.72 6.336,1.08 9.648,1.08 4.032,0 7.56,-0.504 10.44,-1.656 2.88,-1.08 5.112,-2.592 6.624,-4.536 1.44,-1.944 2.232,-4.176 2.232,-6.624 0,-2.952 -0.792,-5.256 -2.376,-6.912 -1.584,-1.656 -3.384,-2.808 -5.472,-3.456 -2.16,-0.576 -4.824,-1.152 -7.992,-1.656 -2.592,-0.36 -4.392,-0.72 -5.472,-1.08 -1.152,-0.36 -1.656,-1.008 -1.656,-1.944 0,-0.792 0.504,-1.44 1.512,-1.944 1.008,-0.504 2.592,-0.792 4.752,-0.792 4.032,0 7.776,1.008 11.232,2.88 l 4.104,-9.288 c -1.872,-1.008 -4.248,-1.872 -6.984,-2.448 -2.808,-0.576 -5.616,-0.864 -8.424,-0.864 -4.032,0 -7.416,0.576 -10.296,1.728 -2.88,1.152 -5.04,2.664 -6.48,4.608 -1.512,1.944 -2.232,4.176 -2.232,6.624 0,3.024 0.792,5.4 2.376,7.056 1.584,1.728 3.456,2.88 5.616,3.456 2.16,0.648 4.824,1.152 7.992,1.512 2.448,0.36 4.176,0.72 5.328,1.08 1.152,0.36 1.728,0.936 1.728,1.8 0,0.864 -0.504,1.584 -1.44,2.016 -0.936,0.432 -2.52,0.648 -4.68,0.648 -2.448,0 -4.824,-0.288 -7.272,-0.936 -2.448,-0.648 -4.608,-1.512 -6.336,-2.664 l -4.104,9.36 c 1.872,1.224 4.464,2.232 7.632,2.952 z" stroke-width="0" stroke-linejoin="miter" stroke-miterlimit="2" fill="#7d6e47" stroke="#7d6e47" transform="translate(0 295.7356) translate(629.0482362500002 80.51432) scale(0.69) translate(-661.86631 39.672)"/>
        <path id="path37731" style="font-style:normal;font-weight:800;font-size:72px;line-height:1;font-family:'Montserrat ExtraBold Alt1';font-variant-ligatures:none;text-align:center;text-anchor:middle" d="m 744.00931,-16.056 c 0.144,-2.16 0.216,-3.24 0.216,-3.384 0,-4.176 -0.936,-7.776 -2.808,-10.8 -1.872,-3.024 -4.32,-5.4 -7.488,-6.984 -3.168,-1.584 -6.696,-2.448 -10.584,-2.448 -4.104,0 -7.776,0.864 -11.016,2.592 -3.312,1.728 -5.832,4.176 -7.704,7.2 -1.872,3.024 -2.736,6.48 -2.736,10.296 0,3.888 0.936,7.416 2.808,10.44 1.872,3.096 4.608,5.472 8.064,7.2 3.456,1.728 7.416,2.592 12.024,2.592 7.272,0 12.816,-2.088 16.632,-6.336 l -7.2,-7.488 c -1.44,1.224 -2.808,2.088 -4.176,2.592 -1.368,0.576 -2.952,0.792 -4.824,0.792 -2.52,0 -4.608,-0.504 -6.264,-1.584 -1.656,-1.08 -2.736,-2.664 -3.312,-4.68 z m -25.92,-12.096 c 1.44,-1.152 3.168,-1.8 5.328,-1.8 2.088,0 3.816,0.648 5.256,1.8 1.44,1.224 2.304,2.88 2.736,4.896 h -15.984 c 0.36,-2.016 1.224,-3.672 2.664,-4.896 z m 7.56,-26.496 -9.648,10.944 h 9.792 l 13.536,-10.944 z" stroke-width="0" stroke-linejoin="miter" stroke-miterlimit="2" fill="#7c6e47" stroke="#7c6e47" transform="translate(0 295.7356) translate(660.1141062500002 70.18088) scale(0.69) translate(-701.88931 54.648)"/>
      </g>
      <image id="icon" x="0" y="0" style="display: none;" xlink:href=""/>
    </g>
  </g></g></svg>