<?xml version="1.0" encoding="utf-8"?>
<svg id="master-artboard" viewBox="0 0 842.5449829101562 196.70408630371094" version="1.1" xmlns="http://www.w3.org/2000/svg" x="0px" y="0px" style="enable-background:new 0 0 1400 980;" width="842.5449829101562px" height="196.70408630371094px" xmlns:xlink="http://www.w3.org/1999/xlink"><rect id="ee-background" x="0" y="0" width="842.5449829101562" height="196.70408630371094" style="fill: white; fill-opacity: 0; pointer-events: none;"/><defs><style id="ee-google-fonts">@import url(https://fonts.googleapis.com/css?family=Fjalla+One:400|Roboto:100,100italic,300,300italic,400,400italic,500,500italic,700,700italic,900,900italic);</style></defs>

































































































<g transform="matrix(1.2760417461395264, 0, 0, 1.2760417461395264, -232.06100463867188, -388.7892303466797)"><metadata id="metadata129007">
    
  </metadata><linearGradient spreadMethod="pad" y2="30%" x2="-10%" y1="120%" x1="30%" id="3d_gradient2-logo-6f4f9f77-6713-4f17-abe9-b78c41dfa435">
    <stop id="stop128982" stop-opacity="1" stop-color="#ffffff" offset="0%"/>
    <stop id="stop128984" stop-opacity="1" stop-color="#000000" offset="100%"/>
  </linearGradient><linearGradient gradientTransform="rotate(-30)" spreadMethod="pad" y2="30%" x2="-10%" y1="120%" x1="30%" id="3d_gradient3-logo-6f4f9f77-6713-4f17-abe9-b78c41dfa435">
    <stop id="stop128987" stop-opacity="1" stop-color="#ffffff" offset="0%"/>
    <stop id="stop128989" stop-opacity="1" stop-color="#cccccc" offset="50%"/>
    <stop id="stop128991" stop-opacity="1" stop-color="#000000" offset="100%"/>
  </linearGradient><g id="logo-group">
    <image id="container" x="272" y="144" width="480" height="480" style="display: none;" transform="translate(0 0)" xlink:href=""/>
    <g id="logo-center" transform="translate(0 0)">
      <image id="icon_container" x="0" y="0" style="display: none;" xlink:href=""/>
      <g id="slogan" style="font-style:oblique;font-weight:700;font-size:32px;line-height:1;font-family:'Uni Neue';font-variant-ligatures:none;text-align:center;text-anchor:middle" transform="translate(0 0)"/>
      <g id="title" style="font-style:normal;font-weight:normal;font-size:72px;line-height:1;font-family:'Brandmark Sans 41';font-variant-ligatures:normal;text-align:center;text-anchor:middle" transform="translate(0 0)">
        <path id="path129010" style="font-style:normal;font-weight:normal;font-size:72px;line-height:1;font-family:'Brandmark Sans 41';font-variant-ligatures:normal;text-align:center;text-anchor:middle" d="m 404.74587,0 h 10.80001 l 4.03199,-22.752 0.72,-4.176 h -31.89599 l -1.44,8.208 h 14.25599 c -1.656,3.024 -4.32,4.32 -9.43199,4.32 h -10.8 c -7.84801,0 -9.64801,-2.88 -8.28001,-10.8 1.368,-7.704 4.176,-10.8 12.024,-10.8 h 75.168 c 6.12,0 10.152,4.896 9.144,10.656 -1.07999,6.12 -6.768,10.872 -12.88799,10.944 l -8.42401,0.072 c -6.12,0.072 -10.152,-4.896 -9.072,-11.016 0.432,-2.376 1.656,-4.536 3.312,-6.336 h -18.72 c -0.864,2.088 -1.51199,4.248 -1.87199,6.48 -2.52001,14.4 6.264,25.2 21.384,25.2 h 13.104 c 15.12,0 27.93599,-10.8 30.45599,-25.2 2.52001,-14.4 -6.264,-25.2 -21.38399,-25.2 h -77.61601 c -16.84799,0 -28.368,5.04 -31.89599,25.2 -3.67201,20.736 5.976,25.92 22.82399,25.92 h 7.27201 c 7.77599,0 14.25599,-1.728 19.07999,-7.128 z" stroke-width="0" stroke-linejoin="miter" stroke-miterlimit="2" fill="#5a4821" stroke="#5a4821" transform="translate(0 333.28) translate(191.75546000000008 -0.3999999999999986) scale(2) translate(-354.64983 50.4)"/>
        <path id="path129012" style="font-style:normal;font-weight:normal;font-size:72px;line-height:1;font-family:'Brandmark Sans 41';font-variant-ligatures:normal;text-align:center;text-anchor:middle" d="M 489.43025,-31.68 483.81425,0 h 17.28 l 3.312,-18.72 h 38.16 l 2.304,-12.96 z m 0.72,-4.32 h 58.32 l 2.592,-14.4 h -58.32 z" stroke-width="0" stroke-linejoin="miter" stroke-miterlimit="2" fill="#887b5c" stroke="#887b5c" transform="translate(0 333.28) translate(450.0843000000001 -0.3999999999999986) scale(2) translate(-483.81425 50.4)"/>
        <path id="path129014" style="font-style:normal;font-weight:normal;font-size:72px;line-height:1;font-family:'Brandmark Sans 41';font-variant-ligatures:normal;text-align:center;text-anchor:middle" d="M 549.75837,-31.68 544.14238,0 h 17.27999 l 3.312,-18.72 h 38.16 l 2.30401,-12.96 z m 0.72001,-4.32 h 62.20799 l 11.52,19.8 -2.88,16.2 h 17.28 l 2.52001,-14.256 33.76799,-36.144 h -23.04 L 634.93438,-32.256 624.49437,-50.4 h -71.42399 z" stroke-width="0" stroke-linejoin="miter" stroke-miterlimit="2" fill="#b5ad96" stroke="#b5ad96" transform="translate(0 333.28) translate(570.74056 -0.3999999999999986) scale(2) translate(-544.14238 50.4)"/>
      </g>
      <image id="icon" x="0" y="0" style="display: none;" xlink:href=""/>
    </g>
  </g></g></svg>